<svg xmlns="http://www.w3.org/2000/svg" version="1.1" xmlns:xlink="http://www.w3.org/1999/xlink" xmlns:svgjs="http://svgjs.com/svgjs" width="14.999999999999998" height="13.200000000000001"><svg width="14.999999999999998" height="13.200000000000001" xmlns="http://www.w3.org/2000/svg" xmlns:svg="http://www.w3.org/2000/svg" version="1.1">
 <metadata id="SvgjsMetadata1015">image/svg+xml</metadata>

 <style id="SvgjsStyle1014" type="text/css">.st0{fill:#B3CAE4;}
	.st1{fill:#83C2E9;}
	.st2{fill:#0067A2;}
	.st3{fill:#BBD7E8;}
	.st4{fill:#5F9BC7;}
	.st5{fill:#2DAADE;}
	.st6{fill:#008ACD;}
	.st7{fill:#8AB2D5;}</style>
 <g class="layer">
  <title>Layer 1</title>
  <g id="SvgjsG1013">
   <g id="SvgjsG1012" transform="matrix(0.0101806, 0, 0, -0.0101806, -2.4324, 258.255)">
    <rect height="65.15" id="SvgjsRect1011" width="5.05" x="-6175.37" y="8042.1"></rect>
   </g>
   <text fill="#000000" font-family="sans-serif" font-size="10.58px" font-style="normal" font-weight="normal" id="SvgjsText1010" letter-spacing="0.23px" stroke-width="0.26" word-spacing="0px" x="24.37" xml:space="preserve" y="15.84" svgjs:data="{&quot;leading&quot;:&quot;1.3&quot;}"></text>
   <g id="SvgjsG1009">
    <g id="SvgjsG1008" transform="matrix(0.458237, 0, 0, 0.458237, 64.4654, 80.0057)">
     <path class="st0" d="m-117.08,-152.3c-3.2,0 -6.2,-1.9 -7.6,-5.1c-3,-6.9 -4.7,-16.4 -4.8,-16.8l1.6,-0.3c0,0.1 1.8,9.7 4.7,16.4c1.3,3.1 4.5,4.7 7.7,3.9l0.6,-0.1c1.8,-0.4 3.1,-0.8 6.2,-0.8l0,1.6c-2.9,0 -4,0.3 -5.8,0.7l-0.6,0.3c-0.7,0.1 -1.4,0.2 -2,0.2z" fill="#b3cae4" id="SvgjsPath1007"></path>
     <path class="st1" d="m-110.68,-162.2c-2.4,0 -5.5,-0.3 -9.8,-2.7c-4.7,-2 -8.5,-2.4 -11.6,-2.8l-1,0l0.2,-1.6l0.9,0.1c3.2,0.3 7.2,0.8 12.1,2.9l0.1,0c4.6,2.6 7.6,2.5 10.1,2.5c0.3,0 0.6,0 0.9,0l0,1.6c-0.3,0 -0.6,0 -0.9,0c-0.3,0 -0.6,0 -1,0z" fill="#83c2e9" id="SvgjsPath1006"></path>
     <path class="st2" d="m-132.28,-147.3l-0.7,-1.5c0.5,-0.2 0.9,-0.4 1.4,-0.7c2.2,-1 4.7,-2.2 7.1,-4.7c1.9,-1.9 3.2,-4.2 4.4,-6.4c2.3,-4 4.4,-7.7 9.4,-7.7l2,0l0,1.6l-2,0c-4.1,0 -5.8,3 -8,6.9c-1.2,2.2 -2.6,4.7 -4.7,6.7c-2.7,2.7 -5.3,3.9 -7.6,5c-0.5,0.4 -0.9,0.6 -1.3,0.8z" fill="#0067a2" id="SvgjsPath1005"></path>
     <path class="st3" d="m-131.78,-152.8l-1.4,-0.9c5.1,-7.9 10.2,-7.2 16.7,-6.4c2.3,0.3 4.9,0.6 7.8,0.6l0,1.6c-3,0 -5.6,-0.3 -8,-0.6c-6.4,-0.8 -10.7,-1.3 -15.1,5.7z" fill="#bbd7e8" id="SvgjsPath1004"></path>
     <path class="st4" d="m-122.28,-155.1c-3.2,0 -7,-1.6 -18.4,-10.3l1,-1.3c13.9,10.5 15.9,10.2 19.2,9.8c4.2,-0.6 6,-0.5 8.5,-0.4c0.9,0 2,0.1 3.2,0.1l0,1.6c-1.3,0 -2.4,0 -3.3,-0.1c-2.4,-0.1 -4.2,-0.1 -8.2,0.4c-0.6,0.2 -1.3,0.2 -2,0.2z" fill="#5f9bc7" id="SvgjsPath1003"></path>
     <path class="st5" d="m-117.88,-149.8l0,0c-2.1,0 -4.8,-0.8 -8.1,-2.4c-2.8,-1.4 -5.4,-2.9 -7.9,-4.7l0.9,-1.3c7.2,5 12.5,6.8 15.1,6.8l0,0c1.8,0 3,-0.3 4.3,-0.7c1.3,-0.4 2.7,-0.8 4.9,-0.8l0,1.6c-1.9,0 -3.2,0.3 -4.5,0.7c-1.3,0.4 -2.7,0.8 -4.7,0.8z" fill="#2daade" id="SvgjsPath1002"></path>
     <path class="st6" d="m-128.58,-146.1l-1.6,-0.4c2.5,-11.2 5.1,-18.5 10.3,-20.3c2.4,-0.8 3.6,-0.5 5.2,0c1.3,0.4 2.9,0.8 6,0.8l0,1.6c-3.3,0 -5.1,-0.5 -6.4,-0.9c-1.5,-0.4 -2.3,-0.6 -4.2,0c-4.6,1.6 -7,8.8 -9.3,19.2z" fill="#008acd" id="SvgjsPath1001"></path>
     <path class="st7" d="m-108.68,-160c-4.3,0 -6.3,-0.4 -8.4,-0.9c-0.8,-0.2 -1.6,-0.3 -2.5,-0.5c-3.6,-0.6 -6.6,-0.5 -9.2,-0.5c-0.7,0 -1.4,0 -2.1,0l0,-1.6c0.7,0 1.4,0 2.1,0c2.7,-0.1 5.7,-0.1 9.5,0.5c1,0.2 1.8,0.3 2.6,0.5c2,0.4 3.9,0.8 8,0.8l0,1.7z" fill="#8ab2d5" id="SvgjsPath1000"></path>
    </g>
   </g>
  </g>
 </g>
</svg><style>@media (prefers-color-scheme: light) { :root { filter: none; } }
</style></svg>